<svg width="25" height="25" viewBox="0 0 25 25" fill="none" xmlns="http://www.w3.org/2000/svg">
<path d="M24.5833 5.91457C24.5697 5.39326 24.5294 4.873 24.4625 4.35582C24.3722 3.90285 24.2219 3.46396 24.0154 3.05082C23.7994 2.60266 23.5094 2.19415 23.1575 1.84249C22.8023 1.49474 22.3945 1.2052 21.9491 0.984573C21.5354 0.78211 21.0966 0.635816 20.6441 0.549573C20.1319 0.472843 19.6153 0.42845 19.0975 0.416656H5.91454C5.39323 0.430234 4.87297 0.470565 4.35579 0.53749C3.90282 0.627714 3.46393 0.778073 3.05079 0.984573C2.60263 1.20055 2.19412 1.49059 1.84246 1.84249C1.49471 2.19763 1.20517 2.60542 0.984543 3.05082C0.78208 3.46451 0.635786 3.90339 0.549543 4.35582C0.472813 4.86808 0.428419 5.38466 0.416626 5.90249V19.0854C0.430203 19.6067 0.470534 20.127 0.537459 20.6442C0.627684 21.0971 0.778043 21.536 0.984543 21.9492C1.20052 22.3973 1.49056 22.8058 1.84246 23.1575C2.1976 23.5052 2.60539 23.7948 3.05079 24.0154C3.46448 24.2179 3.90336 24.3642 4.35579 24.4504C4.86805 24.5271 5.38462 24.5715 5.90246 24.5833H19.0854C19.6067 24.5697 20.127 24.5294 20.6441 24.4625C21.0971 24.3723 21.536 24.2219 21.9491 24.0154C22.3973 23.7994 22.8058 23.5094 23.1575 23.1575C23.5052 22.8023 23.7947 22.3946 24.0154 21.9492C24.2178 21.5355 24.3641 21.0966 24.4504 20.6442C24.5271 20.1319 24.5715 19.6153 24.5833 19.0975V6.55499V5.91457ZM12.7779 20.9583C11.3267 20.9512 9.901 20.5771 8.63329 19.8708L4.04163 21.0792L5.24996 16.5842C4.47072 15.2749 4.05369 13.7819 4.04163 12.2583C4.04644 10.546 4.55783 8.87344 5.51139 7.45122C6.46496 6.029 7.81805 4.92076 9.40026 4.26606C10.9825 3.61137 12.723 3.43951 14.4027 3.77212C16.0824 4.10474 17.6261 4.92696 18.8394 6.13522C20.0527 7.34348 20.8813 8.88376 21.2209 10.562C21.5605 12.2403 21.3959 13.9816 20.7478 15.5665C20.0997 17.1514 18.9971 18.5091 17.5788 19.4686C16.1606 20.4281 14.4901 20.9464 12.7779 20.9583V20.9583ZM12.7779 5.09291C11.4968 5.10757 10.2425 5.46143 9.14267 6.11846C8.04284 6.7755 7.13675 7.71225 6.51665 8.83333C5.89656 9.95441 5.58461 11.2198 5.61256 12.5006C5.64052 13.7815 6.00738 15.032 6.67579 16.125L6.84496 16.4029L6.11996 19.0492L8.87496 18.3L9.14079 18.4571C10.2399 19.1044 11.4903 19.4504 12.7658 19.46C14.6886 19.46 16.5327 18.6962 17.8923 17.3365C19.252 15.9769 20.0158 14.1328 20.0158 12.21C20.0158 10.2872 19.252 8.4431 17.8923 7.08347C16.5327 5.72383 14.6886 4.95999 12.7658 4.95999L12.7779 5.09291ZM17.007 15.3879C16.8488 15.6519 16.6369 15.8797 16.385 16.0566C16.1332 16.2336 15.847 16.3556 15.545 16.415C15.0937 16.4975 14.6291 16.4684 14.1916 16.3304C13.78 16.2017 13.3765 16.0484 12.9833 15.8712C11.4895 15.1217 10.2155 13.9976 9.28579 12.6087C8.78057 11.9653 8.47402 11.1884 8.40371 10.3733C8.39651 10.0347 8.46056 9.69841 8.59171 9.38617C8.72285 9.07393 8.91816 8.79273 9.16496 8.56082C9.23766 8.4784 9.32684 8.41215 9.42675 8.36636C9.52666 8.32057 9.63507 8.29626 9.74496 8.29499H10.0833C10.2162 8.29499 10.3975 8.29499 10.5666 8.66957C10.7358 9.04416 11.1829 10.1679 11.2433 10.2767C11.273 10.3346 11.2885 10.3988 11.2885 10.4639C11.2885 10.5291 11.273 10.5933 11.2433 10.6512C11.1899 10.7825 11.1165 10.9048 11.0258 11.0137C10.917 11.1467 10.7962 11.3037 10.6995 11.4004C10.6029 11.4971 10.482 11.6179 10.6029 11.8354C10.9316 12.3903 11.3386 12.8949 11.8112 13.3337C12.3259 13.7885 12.9143 14.1522 13.5512 14.4092C13.7687 14.5179 13.9016 14.5058 14.0225 14.4092C14.1433 14.3125 14.5662 13.7808 14.7112 13.5633C14.8562 13.3458 15.0012 13.3821 15.1945 13.4546C15.3879 13.5271 16.4633 14.0467 16.6808 14.1554C16.8983 14.2642 17.0312 14.3125 17.0916 14.4092C17.144 14.7254 17.1149 15.0498 17.007 15.3517V15.3879Z" fill="#FA7268"/>
</svg>
